<!-- Generator: Adobe Illustrator 19.0.0, SVG Export Plug-In  -->
<svg version="1.1"
	 xmlns="http://www.w3.org/2000/svg" xmlns:xlink="http://www.w3.org/1999/xlink" xmlns:a="http://ns.adobe.com/AdobeSVGViewerExtensions/3.0/"
	 x="0px" y="0px" width="40.5px" height="54.4px" viewBox="0 0 40.5 54.4" style="enable-background:new 0 0 40.5 54.4;"
	 xml:space="preserve">
<style type="text/css">
	.green{fill:rgb(75, 123, 67);}
	.red{fill:rgb(191, 72, 60);}
</style>
<defs>
</defs>
<path class="green" d="M25.3,40.4H16c-0.7,0-1.2-0.5-1.2-1.2v-9.5c0-0.7,0.5-1.2,1.2-1.2h9.3c0.7,0,1.2,0.5,1.2,1.2v9.5
	C26.5,39.9,25.9,40.4,25.3,40.4z"/>
<path class="green" d="M39.3,40.4H30c-0.7,0-1.2-0.5-1.2-1.2v-9.5c0-0.7,0.5-1.2,1.2-1.2h9.3c0.7,0,1.2,0.5,1.2,1.2v9.5
	C40.5,39.9,39.9,40.4,39.3,40.4z"/>
<path class="green" d="M11.3,40.4H2c-0.7,0-1.2-0.5-1.2-1.2v-9.5c0-0.7,0.5-1.2,1.2-1.2h9.3c0.7,0,1.2,0.5,1.2,1.2v9.5
	C12.5,39.9,11.9,40.4,11.3,40.4z"/>
<path class="green" d="M25.3,54.4H16c-0.7,0-1.2-0.5-1.2-1.2v-9.5c0-0.7,0.5-1.2,1.2-1.2h9.3c0.7,0,1.2,0.5,1.2,1.2v9.5
	C26.5,53.9,25.9,54.4,25.3,54.4z"/>
<path class="green" d="M11.3,54.4H2c-0.7,0-1.2-0.5-1.2-1.2v-9.5c0-0.7,0.5-1.2,1.2-1.2h9.3c0.7,0,1.2,0.5,1.2,1.2v9.5
	C12.5,53.9,11.9,54.4,11.3,54.4z"/>
<path class="green" d="M25.3,26.3H16c-0.7,0-1.2-0.5-1.2-1.2v-9.5c0-0.7,0.5-1.2,1.2-1.2h9.3c0.7,0,1.2,0.5,1.2,1.2v9.5
	C26.5,25.8,25.9,26.3,25.3,26.3z"/>
<path class="green" d="M11.3,26.3H2c-0.7,0-1.2-0.5-1.2-1.2v-9.5c0-0.7,0.5-1.2,1.2-1.2h9.3c0.7,0,1.2,0.5,1.2,1.2v9.5
	C12.5,25.8,11.9,26.3,11.3,26.3z"/>
<path class="green" d="M25.3,12.3H16c-0.7,0-1.2-0.5-1.2-1.2V1.7c0-0.7,0.5-1.2,1.2-1.2h9.3c0.7,0,1.2,0.5,1.2,1.2v9.5
	C26.5,11.8,25.9,12.3,25.3,12.3z"/>
<path class="green" d="M39.3,12.3H30c-0.7,0-1.2-0.5-1.2-1.2V1.7c0-0.7,0.5-1.2,1.2-1.2h9.3c0.7,0,1.2,0.5,1.2,1.2v9.5
	C40.5,11.8,39.9,12.3,39.3,12.3z"/>
<ellipse class="red" cx="6.4" cy="6.4" rx="6.4" ry="6.4"/>
</svg>
